<svg width="37" height="36" viewBox="0 0 37 36" fill="none" xmlns="http://www.w3.org/2000/svg">
<path d="M0.186768 18C0.186768 8.05888 8.24564 0 18.1868 0C28.1279 0 36.1868 8.05888 36.1868 18C36.1868 27.9411 28.1279 36 18.1868 36C8.24564 36 0.186768 27.9411 0.186768 18Z" fill="#F4F4F5"/>
<path d="M11.5535 11.3666H12.8868L14.6601 19.6466C14.7252 19.9499 14.8939 20.221 15.1373 20.4132C15.3806 20.6055 15.6834 20.7069 15.9935 20.7H22.5135C22.8169 20.6995 23.1111 20.5955 23.3475 20.4052C23.5838 20.2149 23.7482 19.9497 23.8135 19.6533L24.9135 14.7H13.6001M16.1868 24C16.1868 24.3682 15.8883 24.6666 15.5201 24.6666C15.1519 24.6666 14.8535 24.3682 14.8535 24C14.8535 23.6318 15.1519 23.3333 15.5201 23.3333C15.8883 23.3333 16.1868 23.6318 16.1868 24ZM23.5201 24C23.5201 24.3682 23.2217 24.6666 22.8535 24.6666C22.4853 24.6666 22.1868 24.3682 22.1868 24C22.1868 23.6318 22.4853 23.3333 22.8535 23.3333C23.2217 23.3333 23.5201 23.6318 23.5201 24Z" stroke="#18181B" stroke-linecap="round" stroke-linejoin="round"/>
</svg>
